<svg width="749" height="976" viewBox="0 0 749 976" fill="none" xmlns="http://www.w3.org/2000/svg">
<rect y="-48" width="749" height="1024" fill="#543B58"/>
<path d="M74.9318 72H71.4091C71.2008 70.9867 70.8362 70.0966 70.3153 69.3295C69.804 68.5625 69.179 67.9186 68.4403 67.3977C67.7112 66.8674 66.9015 66.4697 66.0114 66.2045C65.1212 65.9394 64.1932 65.8068 63.2273 65.8068C61.4659 65.8068 59.8703 66.2519 58.4403 67.142C57.0199 68.0322 55.8883 69.3438 55.0455 71.0767C54.2121 72.8097 53.7955 74.9356 53.7955 77.4545C53.7955 79.9735 54.2121 82.0994 55.0455 83.8324C55.8883 85.5653 57.0199 86.8769 58.4403 87.767C59.8703 88.6572 61.4659 89.1023 63.2273 89.1023C64.1932 89.1023 65.1212 88.9697 66.0114 88.7045C66.9015 88.4394 67.7112 88.0464 68.4403 87.5256C69.179 86.9953 69.804 86.3466 70.3153 85.5795C70.8362 84.803 71.2008 83.9129 71.4091 82.9091H74.9318C74.6667 84.3958 74.1837 85.7263 73.483 86.9006C72.7822 88.0748 71.911 89.0739 70.8693 89.8977C69.8277 90.7121 68.6581 91.3324 67.3608 91.7585C66.0729 92.1847 64.6951 92.3977 63.2273 92.3977C60.7462 92.3977 58.5398 91.7917 56.608 90.5795C54.6761 89.3674 53.1563 87.6439 52.0483 85.4091C50.9403 83.1742 50.3864 80.5227 50.3864 77.4545C50.3864 74.3864 50.9403 71.7348 52.0483 69.5C53.1563 67.2652 54.6761 65.5417 56.608 64.3295C58.5398 63.1174 60.7462 62.5114 63.2273 62.5114C64.6951 62.5114 66.0729 62.7244 67.3608 63.1506C68.6581 63.5767 69.8277 64.2017 70.8693 65.0256C71.911 65.84 72.7822 66.8343 73.483 68.0085C74.1837 69.1733 74.6667 70.5038 74.9318 72ZM89.0334 92.4545C87.0637 92.4545 85.3355 91.9858 83.8487 91.0483C82.3714 90.1108 81.2161 88.7992 80.3828 87.1136C79.5589 85.428 79.147 83.4583 79.147 81.2045C79.147 78.9318 79.5589 76.9479 80.3828 75.2528C81.2161 73.5578 82.3714 72.2415 83.8487 71.304C85.3355 70.3665 87.0637 69.8977 89.0334 69.8977C91.0031 69.8977 92.7266 70.3665 94.2038 71.304C95.6906 72.2415 96.8459 73.5578 97.6697 75.2528C98.5031 76.9479 98.9197 78.9318 98.9197 81.2045C98.9197 83.4583 98.5031 85.428 97.6697 87.1136C96.8459 88.7992 95.6906 90.1108 94.2038 91.0483C92.7266 91.9858 91.0031 92.4545 89.0334 92.4545ZM89.0334 89.4432C90.5296 89.4432 91.7607 89.0597 92.7266 88.2926C93.6925 87.5256 94.4074 86.517 94.8714 85.267C95.3355 84.017 95.5675 82.6629 95.5675 81.2045C95.5675 79.7462 95.3355 78.3873 94.8714 77.1278C94.4074 75.8684 93.6925 74.8504 92.7266 74.0739C91.7607 73.2973 90.5296 72.9091 89.0334 72.9091C87.5372 72.9091 86.3061 73.2973 85.3402 74.0739C84.3743 74.8504 83.6593 75.8684 83.1953 77.1278C82.7313 78.3873 82.4993 79.7462 82.4993 81.2045C82.4993 82.6629 82.7313 84.017 83.1953 85.267C83.6593 86.517 84.3743 87.5256 85.3402 88.2926C86.3061 89.0597 87.5372 89.4432 89.0334 89.4432ZM104.037 92V70.1818H107.276V73.5909H107.56C108.014 72.4261 108.748 71.5218 109.761 70.8778C110.775 70.2244 111.991 69.8977 113.412 69.8977C114.851 69.8977 116.049 70.2244 117.006 70.8778C117.972 71.5218 118.724 72.4261 119.264 73.5909H119.491C120.05 72.464 120.888 71.5691 122.006 70.9062C123.123 70.2339 124.463 69.8977 126.026 69.8977C127.976 69.8977 129.572 70.5085 130.812 71.7301C132.053 72.9422 132.673 74.8314 132.673 77.3977V92H129.321V77.3977C129.321 75.7879 128.881 74.6373 128 73.946C127.119 73.2547 126.082 72.9091 124.889 72.9091C123.355 72.9091 122.167 73.3731 121.324 74.3011C120.481 75.2197 120.06 76.3845 120.06 77.7955V92H116.651V77.0568C116.651 75.8163 116.248 74.8172 115.443 74.0597C114.638 73.2926 113.601 72.9091 112.332 72.9091C111.461 72.9091 110.647 73.1411 109.889 73.6051C109.141 74.0691 108.535 74.7131 108.071 75.5369C107.616 76.3513 107.389 77.2936 107.389 78.3636V92H104.037ZM147.95 92.4545C145.848 92.4545 144.035 91.9905 142.51 91.0625C140.995 90.125 139.825 88.8182 139.001 87.142C138.187 85.4564 137.78 83.4962 137.78 81.2614C137.78 79.0265 138.187 77.0568 139.001 75.3523C139.825 73.6383 140.971 72.303 142.439 71.3466C143.916 70.3807 145.64 69.8977 147.609 69.8977C148.746 69.8977 149.868 70.0871 150.976 70.4659C152.084 70.8447 153.092 71.4602 154.001 72.3125C154.911 73.1553 155.635 74.2727 156.175 75.6648C156.714 77.0568 156.984 78.7708 156.984 80.8068V82.2273H140.166V79.3295H153.575C153.575 78.0985 153.329 77 152.837 76.0341C152.354 75.0682 151.662 74.3059 150.763 73.7472C149.873 73.1884 148.821 72.9091 147.609 72.9091C146.274 72.9091 145.119 73.2405 144.143 73.9034C143.178 74.5568 142.434 75.4091 141.913 76.4602C141.393 77.5114 141.132 78.6383 141.132 79.8409V81.7727C141.132 83.4205 141.416 84.8172 141.984 85.9631C142.562 87.0994 143.362 87.9659 144.385 88.5625C145.408 89.1496 146.596 89.4432 147.95 89.4432C148.831 89.4432 149.626 89.3201 150.337 89.0739C151.056 88.8182 151.677 88.4394 152.197 87.9375C152.718 87.4261 153.121 86.7917 153.405 86.0341L156.643 86.9432C156.303 88.0417 155.73 89.0076 154.925 89.8409C154.12 90.6648 153.125 91.3087 151.942 91.7727C150.758 92.2273 149.428 92.4545 147.95 92.4545ZM170.947 92.4545C168.902 92.4545 167.141 91.9716 165.663 91.0057C164.186 90.0398 163.05 88.7093 162.254 87.0142C161.459 85.3191 161.061 83.3826 161.061 81.2045C161.061 78.9886 161.468 77.0331 162.283 75.3381C163.107 73.6335 164.252 72.303 165.72 71.3466C167.197 70.3807 168.921 69.8977 170.891 69.8977C172.425 69.8977 173.807 70.1818 175.038 70.75C176.269 71.3182 177.278 72.1136 178.064 73.1364C178.85 74.1591 179.338 75.3523 179.527 76.7159H176.175C175.919 75.7216 175.351 74.8409 174.47 74.0739C173.599 73.2973 172.425 72.9091 170.947 72.9091C169.641 72.9091 168.495 73.25 167.51 73.9318C166.535 74.6042 165.772 75.5559 165.223 76.7869C164.683 78.0085 164.413 79.4432 164.413 81.0909C164.413 82.7765 164.679 84.2443 165.209 85.4943C165.749 86.7443 166.506 87.715 167.482 88.4062C168.466 89.0975 169.622 89.4432 170.947 89.4432C171.819 89.4432 172.609 89.2917 173.32 88.9886C174.03 88.6856 174.631 88.25 175.124 87.6818C175.616 87.1136 175.966 86.4318 176.175 85.6364H179.527C179.338 86.9242 178.869 88.0843 178.121 89.1165C177.382 90.1392 176.402 90.9536 175.18 91.5597C173.968 92.1562 172.557 92.4545 170.947 92.4545ZM193.575 92.4545C191.473 92.4545 189.66 91.9905 188.135 91.0625C186.62 90.125 185.45 88.8182 184.626 87.142C183.812 85.4564 183.405 83.4962 183.405 81.2614C183.405 79.0265 183.812 77.0568 184.626 75.3523C185.45 73.6383 186.596 72.303 188.064 71.3466C189.541 70.3807 191.265 69.8977 193.234 69.8977C194.371 69.8977 195.493 70.0871 196.601 70.4659C197.709 70.8447 198.717 71.4602 199.626 72.3125C200.536 73.1553 201.26 74.2727 201.8 75.6648C202.339 77.0568 202.609 78.7708 202.609 80.8068V82.2273H185.791V79.3295H199.2C199.2 78.0985 198.954 77 198.462 76.0341C197.979 75.0682 197.287 74.3059 196.388 73.7472C195.498 73.1884 194.446 72.9091 193.234 72.9091C191.899 72.9091 190.744 73.2405 189.768 73.9034C188.803 74.5568 188.059 75.4091 187.538 76.4602C187.018 77.5114 186.757 78.6383 186.757 79.8409V81.7727C186.757 83.4205 187.041 84.8172 187.609 85.9631C188.187 87.0994 188.987 87.9659 190.01 88.5625C191.033 89.1496 192.221 89.4432 193.575 89.4432C194.456 89.4432 195.251 89.3201 195.962 89.0739C196.681 88.8182 197.302 88.4394 197.822 87.9375C198.343 87.4261 198.746 86.7917 199.03 86.0341L202.268 86.9432C201.928 88.0417 201.355 89.0076 200.55 89.8409C199.745 90.6648 198.75 91.3087 197.567 91.7727C196.383 92.2273 195.053 92.4545 193.575 92.4545ZM218.959 70.1818H222.311V93.5909C222.311 94.9356 222.079 96.1004 221.615 97.0852C221.161 98.0701 220.469 98.8324 219.541 99.3722C218.623 99.9119 217.463 100.182 216.061 100.182C215.947 100.182 215.834 100.182 215.72 100.182C215.607 100.182 215.493 100.182 215.379 100.182V97.0568C215.493 97.0568 215.597 97.0568 215.692 97.0568C215.786 97.0568 215.891 97.0568 216.004 97.0568C217.027 97.0568 217.775 96.7538 218.249 96.1477C218.722 95.5511 218.959 94.6989 218.959 93.5909V70.1818ZM220.607 66.5455C219.953 66.5455 219.39 66.3229 218.916 65.8778C218.452 65.4328 218.22 64.8977 218.22 64.2727C218.22 63.6477 218.452 63.1127 218.916 62.6676C219.39 62.2225 219.953 62 220.607 62C221.26 62 221.819 62.2225 222.283 62.6676C222.756 63.1127 222.993 63.6477 222.993 64.2727C222.993 64.8977 222.756 65.4328 222.283 65.8778C221.819 66.3229 221.26 66.5455 220.607 66.5455ZM234.871 92.5114C233.489 92.5114 232.234 92.2509 231.107 91.7301C229.98 91.1998 229.085 90.4375 228.423 89.4432C227.76 88.4394 227.428 87.2273 227.428 85.8068C227.428 84.5568 227.674 83.5436 228.167 82.767C228.659 81.9811 229.317 81.3655 230.141 80.9205C230.965 80.4754 231.874 80.1439 232.869 79.9261C233.872 79.6989 234.881 79.5189 235.894 79.3864C237.22 79.2159 238.295 79.0881 239.119 79.0028C239.952 78.9081 240.558 78.7519 240.937 78.5341C241.325 78.3163 241.519 77.9375 241.519 77.3977V77.2841C241.519 75.8826 241.136 74.7936 240.369 74.017C239.611 73.2405 238.46 72.8523 236.917 72.8523C235.317 72.8523 234.062 73.2027 233.153 73.9034C232.244 74.6042 231.604 75.3523 231.235 76.1477L228.053 75.0114C228.621 73.6856 229.379 72.6534 230.326 71.9148C231.282 71.1667 232.324 70.6458 233.451 70.3523C234.587 70.0492 235.705 69.8977 236.803 69.8977C237.504 69.8977 238.309 69.983 239.218 70.1534C240.137 70.3144 241.022 70.6506 241.874 71.1619C242.736 71.6733 243.451 72.4451 244.019 73.4773C244.587 74.5095 244.871 75.892 244.871 77.625V92H241.519V89.0455H241.349C241.121 89.5189 240.743 90.0256 240.212 90.5653C239.682 91.1051 238.977 91.5644 238.096 91.9432C237.215 92.322 236.14 92.5114 234.871 92.5114ZM235.383 89.5C236.709 89.5 237.826 89.2396 238.735 88.7188C239.654 88.1979 240.345 87.5256 240.809 86.7017C241.282 85.8778 241.519 85.0114 241.519 84.1023V81.0341C241.377 81.2045 241.065 81.3608 240.582 81.5028C240.108 81.6354 239.559 81.7538 238.934 81.858C238.318 81.9527 237.717 82.0379 237.13 82.1136C236.552 82.1799 236.084 82.2367 235.724 82.2841C234.853 82.3977 234.038 82.5824 233.281 82.8381C232.532 83.0843 231.926 83.4583 231.462 83.9602C231.008 84.4527 230.781 85.125 230.781 85.9773C230.781 87.142 231.211 88.0227 232.073 88.6193C232.944 89.2064 234.048 89.5 235.383 89.5ZM235.496 67.2273L238.962 60.6364H242.883L238.451 67.2273H235.496ZM268.661 92.5114C267.278 92.5114 266.023 92.2509 264.896 91.7301C263.769 91.1998 262.875 90.4375 262.212 89.4432C261.549 88.4394 261.217 87.2273 261.217 85.8068C261.217 84.5568 261.464 83.5436 261.956 82.767C262.448 81.9811 263.107 81.3655 263.93 80.9205C264.754 80.4754 265.663 80.1439 266.658 79.9261C267.661 79.6989 268.67 79.5189 269.683 79.3864C271.009 79.2159 272.084 79.0881 272.908 79.0028C273.741 78.9081 274.347 78.7519 274.726 78.5341C275.114 78.3163 275.308 77.9375 275.308 77.3977V77.2841C275.308 75.8826 274.925 74.7936 274.158 74.017C273.4 73.2405 272.25 72.8523 270.706 72.8523C269.106 72.8523 267.851 73.2027 266.942 73.9034C266.033 74.6042 265.393 75.3523 265.024 76.1477L261.842 75.0114C262.411 73.6856 263.168 72.6534 264.115 71.9148C265.071 71.1667 266.113 70.6458 267.24 70.3523C268.376 70.0492 269.494 69.8977 270.592 69.8977C271.293 69.8977 272.098 69.983 273.007 70.1534C273.926 70.3144 274.811 70.6506 275.663 71.1619C276.525 71.6733 277.24 72.4451 277.808 73.4773C278.376 74.5095 278.661 75.892 278.661 77.625V92H275.308V89.0455H275.138C274.911 89.5189 274.532 90.0256 274.001 90.5653C273.471 91.1051 272.766 91.5644 271.885 91.9432C271.004 92.322 269.929 92.5114 268.661 92.5114ZM269.172 89.5C270.498 89.5 271.615 89.2396 272.524 88.7188C273.443 88.1979 274.134 87.5256 274.598 86.7017C275.071 85.8778 275.308 85.0114 275.308 84.1023V81.0341C275.166 81.2045 274.854 81.3608 274.371 81.5028C273.897 81.6354 273.348 81.7538 272.723 81.858C272.107 81.9527 271.506 82.0379 270.919 82.1136C270.341 82.1799 269.873 82.2367 269.513 82.2841C268.642 82.3977 267.827 82.5824 267.07 82.8381C266.321 83.0843 265.715 83.4583 265.251 83.9602C264.797 84.4527 264.57 85.125 264.57 85.9773C264.57 87.142 265 88.0227 265.862 88.6193C266.733 89.2064 267.837 89.5 269.172 89.5ZM304.893 92.4545C302.923 92.4545 301.195 91.9858 299.708 91.0483C298.231 90.1108 297.076 88.7992 296.242 87.1136C295.418 85.428 295.006 83.4583 295.006 81.2045C295.006 78.9318 295.418 76.9479 296.242 75.2528C297.076 73.5578 298.231 72.2415 299.708 71.304C301.195 70.3665 302.923 69.8977 304.893 69.8977C306.862 69.8977 308.586 70.3665 310.063 71.304C311.55 72.2415 312.705 73.5578 313.529 75.2528C314.362 76.9479 314.779 78.9318 314.779 81.2045C314.779 83.4583 314.362 85.428 313.529 87.1136C312.705 88.7992 311.55 90.1108 310.063 91.0483C308.586 91.9858 306.862 92.4545 304.893 92.4545ZM304.893 89.4432C306.389 89.4432 307.62 89.0597 308.586 88.2926C309.552 87.5256 310.267 86.517 310.731 85.267C311.195 84.017 311.427 82.6629 311.427 81.2045C311.427 79.7462 311.195 78.3873 310.731 77.1278C310.267 75.8684 309.552 74.8504 308.586 74.0739C307.62 73.2973 306.389 72.9091 304.893 72.9091C303.397 72.9091 302.165 73.2973 301.2 74.0739C300.234 74.8504 299.519 75.8684 299.055 77.1278C298.591 78.3873 298.359 79.7462 298.359 81.2045C298.359 82.6629 298.591 84.017 299.055 85.267C299.519 86.517 300.234 87.5256 301.2 88.2926C302.165 89.0597 303.397 89.4432 304.893 89.4432ZM319.896 92V70.1818H323.135V73.4773H323.362C323.76 72.3977 324.48 71.5218 325.521 70.8494C326.563 70.1771 327.737 69.8409 329.044 69.8409C329.29 69.8409 329.598 69.8456 329.967 69.8551C330.337 69.8646 330.616 69.8788 330.805 69.8977V73.3068C330.692 73.2784 330.431 73.2358 330.024 73.179C329.626 73.1127 329.205 73.0795 328.76 73.0795C327.699 73.0795 326.752 73.3021 325.919 73.7472C325.095 74.1828 324.442 74.7888 323.959 75.5653C323.485 76.3324 323.249 77.2083 323.249 78.1932V92H319.896ZM342.922 100.636C341.303 100.636 339.911 100.428 338.746 100.011C337.581 99.6042 336.61 99.0644 335.834 98.392C335.067 97.7292 334.456 97.0189 334.001 96.2614L336.672 94.3864C336.975 94.7841 337.358 95.2386 337.822 95.75C338.286 96.2708 338.921 96.7206 339.726 97.0994C340.54 97.4877 341.606 97.6818 342.922 97.6818C344.683 97.6818 346.137 97.2557 347.283 96.4034C348.429 95.5511 349.001 94.2159 349.001 92.3977V87.9659H348.717C348.471 88.3636 348.121 88.8561 347.666 89.4432C347.221 90.0208 346.577 90.5369 345.734 90.9915C344.901 91.4366 343.774 91.6591 342.354 91.6591C340.592 91.6591 339.011 91.2424 337.609 90.4091C336.217 89.5758 335.114 88.3636 334.3 86.7727C333.495 85.1818 333.092 83.25 333.092 80.9773C333.092 78.7424 333.485 76.7964 334.271 75.1392C335.057 73.4725 336.151 72.1847 337.553 71.2756C338.954 70.357 340.573 69.8977 342.411 69.8977C343.831 69.8977 344.958 70.1345 345.791 70.608C346.634 71.072 347.278 71.6023 347.723 72.1989C348.178 72.786 348.528 73.2689 348.774 73.6477H349.115V70.1818H352.354V92.625C352.354 94.5 351.928 96.0246 351.075 97.1989C350.232 98.3826 349.096 99.2491 347.666 99.7983C346.246 100.357 344.664 100.636 342.922 100.636ZM342.808 88.6477C344.153 88.6477 345.289 88.34 346.217 87.7244C347.145 87.1089 347.851 86.2235 348.334 85.0682C348.817 83.9129 349.058 82.5303 349.058 80.9205C349.058 79.3485 348.821 77.9612 348.348 76.7585C347.875 75.5559 347.174 74.6136 346.246 73.9318C345.318 73.25 344.172 72.9091 342.808 72.9091C341.388 72.9091 340.204 73.2689 339.257 73.9886C338.32 74.7083 337.614 75.6742 337.141 76.8864C336.677 78.0985 336.445 79.4432 336.445 80.9205C336.445 82.4356 336.681 83.7756 337.155 84.9403C337.638 86.0956 338.348 87.0047 339.286 87.6676C340.232 88.321 341.407 88.6477 342.808 88.6477ZM364.911 92.5114C363.528 92.5114 362.273 92.2509 361.146 91.7301C360.019 91.1998 359.125 90.4375 358.462 89.4432C357.799 88.4394 357.467 87.2273 357.467 85.8068C357.467 84.5568 357.714 83.5436 358.206 82.767C358.698 81.9811 359.357 81.3655 360.18 80.9205C361.004 80.4754 361.913 80.1439 362.908 79.9261C363.911 79.6989 364.92 79.5189 365.933 79.3864C367.259 79.2159 368.334 79.0881 369.158 79.0028C369.991 78.9081 370.597 78.7519 370.976 78.5341C371.364 78.3163 371.558 77.9375 371.558 77.3977V77.2841C371.558 75.8826 371.175 74.7936 370.408 74.017C369.65 73.2405 368.5 72.8523 366.956 72.8523C365.356 72.8523 364.101 73.2027 363.192 73.9034C362.283 74.6042 361.643 75.3523 361.274 76.1477L358.092 75.0114C358.661 73.6856 359.418 72.6534 360.365 71.9148C361.321 71.1667 362.363 70.6458 363.49 70.3523C364.626 70.0492 365.744 69.8977 366.842 69.8977C367.543 69.8977 368.348 69.983 369.257 70.1534C370.176 70.3144 371.061 70.6506 371.913 71.1619C372.775 71.6733 373.49 72.4451 374.058 73.4773C374.626 74.5095 374.911 75.892 374.911 77.625V92H371.558V89.0455H371.388C371.161 89.5189 370.782 90.0256 370.251 90.5653C369.721 91.1051 369.016 91.5644 368.135 91.9432C367.254 92.322 366.179 92.5114 364.911 92.5114ZM365.422 89.5C366.748 89.5 367.865 89.2396 368.774 88.7188C369.693 88.1979 370.384 87.5256 370.848 86.7017C371.321 85.8778 371.558 85.0114 371.558 84.1023V81.0341C371.416 81.2045 371.104 81.3608 370.621 81.5028C370.147 81.6354 369.598 81.7538 368.973 81.858C368.357 81.9527 367.756 82.0379 367.169 82.1136C366.591 82.1799 366.123 82.2367 365.763 82.2841C364.892 82.3977 364.077 82.5824 363.32 82.8381C362.571 83.0843 361.965 83.4583 361.501 83.9602C361.047 84.4527 360.82 85.125 360.82 85.9773C360.82 87.142 361.25 88.0227 362.112 88.6193C362.983 89.2064 364.087 89.5 365.422 89.5ZM384.381 78.875V92H381.029V70.1818H384.268V73.5909H384.552C385.063 72.483 385.84 71.5928 386.881 70.9205C387.923 70.2386 389.268 69.8977 390.915 69.8977C392.393 69.8977 393.685 70.2008 394.793 70.8068C395.901 71.4034 396.763 72.3125 397.379 73.5341C397.994 74.7462 398.302 76.2803 398.302 78.1364V92H394.95V78.3636C394.95 76.6496 394.504 75.3144 393.614 74.358C392.724 73.392 391.503 72.9091 389.95 72.9091C388.879 72.9091 387.923 73.1411 387.08 73.6051C386.247 74.0691 385.589 74.7462 385.106 75.6364C384.623 76.5265 384.381 77.6061 384.381 78.875ZM404.428 92V70.1818H407.78V92H404.428ZM406.132 66.5455C405.479 66.5455 404.915 66.3229 404.442 65.8778C403.978 65.4328 403.746 64.8977 403.746 64.2727C403.746 63.6477 403.978 63.1127 404.442 62.6676C404.915 62.2225 405.479 62 406.132 62C406.786 62 407.344 62.2225 407.808 62.6676C408.282 63.1127 408.518 63.6477 408.518 64.2727C408.518 64.8977 408.282 65.4328 407.808 65.8778C407.344 66.3229 406.786 66.5455 406.132 66.5455ZM413.295 92V89.4432L425.681 73.5341V73.3068H413.692V70.1818H429.999V72.8523L417.954 88.6477V88.875H430.397V92H413.295ZM441.981 92.5114C440.598 92.5114 439.344 92.2509 438.217 91.7301C437.09 91.1998 436.195 90.4375 435.532 89.4432C434.869 88.4394 434.538 87.2273 434.538 85.8068C434.538 84.5568 434.784 83.5436 435.276 82.767C435.769 81.9811 436.427 81.3655 437.251 80.9205C438.075 80.4754 438.984 80.1439 439.978 79.9261C440.982 79.6989 441.99 79.5189 443.004 79.3864C444.329 79.2159 445.404 79.0881 446.228 79.0028C447.061 78.9081 447.667 78.7519 448.046 78.5341C448.434 78.3163 448.629 77.9375 448.629 77.3977V77.2841C448.629 75.8826 448.245 74.7936 447.478 74.017C446.72 73.2405 445.57 72.8523 444.026 72.8523C442.426 72.8523 441.171 73.2027 440.262 73.9034C439.353 74.6042 438.714 75.3523 438.344 76.1477L435.163 75.0114C435.731 73.6856 436.488 72.6534 437.435 71.9148C438.392 71.1667 439.433 70.6458 440.56 70.3523C441.697 70.0492 442.814 69.8977 443.913 69.8977C444.613 69.8977 445.418 69.983 446.327 70.1534C447.246 70.3144 448.131 70.6506 448.984 71.1619C449.845 71.6733 450.56 72.4451 451.129 73.4773C451.697 74.5095 451.981 75.892 451.981 77.625V92H448.629V89.0455H448.458C448.231 89.5189 447.852 90.0256 447.322 90.5653C446.791 91.1051 446.086 91.5644 445.205 91.9432C444.325 92.322 443.25 92.5114 441.981 92.5114ZM442.492 89.5C443.818 89.5 444.935 89.2396 445.844 88.7188C446.763 88.1979 447.454 87.5256 447.918 86.7017C448.392 85.8778 448.629 85.0114 448.629 84.1023V81.0341C448.487 81.2045 448.174 81.3608 447.691 81.5028C447.218 81.6354 446.668 81.7538 446.043 81.858C445.428 81.9527 444.826 82.0379 444.239 82.1136C443.662 82.1799 443.193 82.2367 442.833 82.2841C441.962 82.3977 441.147 82.5824 440.39 82.8381C439.642 83.0843 439.036 83.4583 438.572 83.9602C438.117 84.4527 437.89 85.125 437.89 85.9773C437.89 87.142 438.321 88.0227 439.183 88.6193C440.054 89.2064 441.157 89.5 442.492 89.5ZM458.099 92V70.1818H461.338V73.4773H461.565C461.963 72.3977 462.683 71.5218 463.724 70.8494C464.766 70.1771 465.94 69.8409 467.247 69.8409C467.493 69.8409 467.801 69.8456 468.17 69.8551C468.54 69.8646 468.819 69.8788 469.009 69.8977V73.3068C468.895 73.2784 468.634 73.2358 468.227 73.179C467.83 73.1127 467.408 73.0795 466.963 73.0795C465.902 73.0795 464.955 73.3021 464.122 73.7472C463.298 74.1828 462.645 74.7888 462.162 75.5653C461.688 76.3324 461.452 77.2083 461.452 78.1932V92H458.099ZM60.2159 140.455C58.1136 140.455 56.3002 139.991 54.7756 139.062C53.2604 138.125 52.0909 136.818 51.267 135.142C50.4527 133.456 50.0455 131.496 50.0455 129.261C50.0455 127.027 50.4527 125.057 51.267 123.352C52.0909 121.638 53.2367 120.303 54.7045 119.347C56.1818 118.381 57.9053 117.898 59.875 117.898C61.0114 117.898 62.1335 118.087 63.2415 118.466C64.3494 118.845 65.358 119.46 66.267 120.312C67.1761 121.155 67.9006 122.273 68.4403 123.665C68.9801 125.057 69.25 126.771 69.25 128.807V130.227H52.4318V127.33H65.8409C65.8409 126.098 65.5947 125 65.1023 124.034C64.6193 123.068 63.928 122.306 63.0284 121.747C62.1383 121.188 61.0871 120.909 59.875 120.909C58.5398 120.909 57.3845 121.241 56.4091 121.903C55.4432 122.557 54.6998 123.409 54.179 124.46C53.6581 125.511 53.3977 126.638 53.3977 127.841V129.773C53.3977 131.42 53.6818 132.817 54.25 133.963C54.8277 135.099 55.6278 135.966 56.6506 136.562C57.6733 137.15 58.8617 137.443 60.2159 137.443C61.0966 137.443 61.892 137.32 62.6023 137.074C63.322 136.818 63.9422 136.439 64.4631 135.938C64.9839 135.426 65.3864 134.792 65.6705 134.034L68.9091 134.943C68.5682 136.042 67.9953 137.008 67.1903 137.841C66.3854 138.665 65.3911 139.309 64.2074 139.773C63.0237 140.227 61.6932 140.455 60.2159 140.455ZM89.804 123.068L86.7926 123.92C86.6032 123.419 86.3239 122.931 85.9545 122.457C85.5947 121.974 85.1023 121.577 84.4773 121.264C83.8523 120.952 83.0521 120.795 82.0767 120.795C80.7415 120.795 79.6288 121.103 78.7386 121.719C77.858 122.325 77.4176 123.097 77.4176 124.034C77.4176 124.867 77.7206 125.526 78.3267 126.009C78.9328 126.491 79.8797 126.894 81.1676 127.216L84.4062 128.011C86.357 128.485 87.8106 129.209 88.767 130.185C89.7235 131.151 90.2017 132.396 90.2017 133.92C90.2017 135.17 89.8419 136.288 89.1222 137.273C88.4119 138.258 87.4176 139.034 86.1392 139.602C84.8608 140.17 83.3741 140.455 81.679 140.455C79.4536 140.455 77.6117 139.972 76.1534 139.006C74.6951 138.04 73.7718 136.629 73.3835 134.773L76.5653 133.977C76.8684 135.152 77.4413 136.032 78.2841 136.619C79.1364 137.206 80.2491 137.5 81.6222 137.5C83.1847 137.5 84.4252 137.169 85.3438 136.506C86.2718 135.833 86.7358 135.028 86.7358 134.091C86.7358 133.333 86.4706 132.699 85.9403 132.188C85.41 131.667 84.5956 131.278 83.4972 131.023L79.8608 130.17C77.8627 129.697 76.3949 128.963 75.4574 127.969C74.5294 126.965 74.0653 125.71 74.0653 124.205C74.0653 122.973 74.411 121.884 75.1023 120.938C75.803 119.991 76.7547 119.247 77.9574 118.707C79.1695 118.168 80.5426 117.898 82.0767 117.898C84.2358 117.898 85.9309 118.371 87.1619 119.318C88.4025 120.265 89.2831 121.515 89.804 123.068ZM110.702 123.068L107.691 123.92C107.502 123.419 107.222 122.931 106.853 122.457C106.493 121.974 106.001 121.577 105.376 121.264C104.751 120.952 103.951 120.795 102.975 120.795C101.64 120.795 100.527 121.103 99.6371 121.719C98.7564 122.325 98.3161 123.097 98.3161 124.034C98.3161 124.867 98.6191 125.526 99.2251 126.009C99.8312 126.491 100.778 126.894 102.066 127.216L105.305 128.011C107.255 128.485 108.709 129.209 109.665 130.185C110.622 131.151 111.1 132.396 111.1 133.92C111.1 135.17 110.74 136.288 110.021 137.273C109.31 138.258 108.316 139.034 107.038 139.602C105.759 140.17 104.272 140.455 102.577 140.455C100.352 140.455 98.5102 139.972 97.0518 139.006C95.5935 138.04 94.6702 136.629 94.282 134.773L97.4638 133.977C97.7668 135.152 98.3397 136.032 99.1825 136.619C100.035 137.206 101.147 137.5 102.521 137.5C104.083 137.5 105.324 137.169 106.242 136.506C107.17 135.833 107.634 135.028 107.634 134.091C107.634 133.333 107.369 132.699 106.839 132.188C106.308 131.667 105.494 131.278 104.396 131.023L100.759 130.17C98.7611 129.697 97.2933 128.963 96.3558 127.969C95.4278 126.965 94.9638 125.71 94.9638 124.205C94.9638 122.973 95.3094 121.884 96.0007 120.938C96.7015 119.991 97.6532 119.247 98.8558 118.707C100.068 118.168 101.441 117.898 102.975 117.898C105.134 117.898 106.829 118.371 108.06 119.318C109.301 120.265 110.182 121.515 110.702 123.068ZM122.567 140.511C121.184 140.511 119.929 140.251 118.803 139.73C117.676 139.2 116.781 138.438 116.118 137.443C115.455 136.439 115.124 135.227 115.124 133.807C115.124 132.557 115.37 131.544 115.862 130.767C116.355 129.981 117.013 129.366 117.837 128.92C118.661 128.475 119.57 128.144 120.564 127.926C121.568 127.699 122.576 127.519 123.589 127.386C124.915 127.216 125.99 127.088 126.814 127.003C127.647 126.908 128.253 126.752 128.632 126.534C129.02 126.316 129.214 125.937 129.214 125.398V125.284C129.214 123.883 128.831 122.794 128.064 122.017C127.306 121.241 126.156 120.852 124.612 120.852C123.012 120.852 121.757 121.203 120.848 121.903C119.939 122.604 119.3 123.352 118.93 124.148L115.749 123.011C116.317 121.686 117.074 120.653 118.021 119.915C118.978 119.167 120.019 118.646 121.146 118.352C122.283 118.049 123.4 117.898 124.499 117.898C125.199 117.898 126.004 117.983 126.913 118.153C127.832 118.314 128.717 118.651 129.57 119.162C130.431 119.673 131.146 120.445 131.714 121.477C132.283 122.509 132.567 123.892 132.567 125.625V140H129.214V137.045H129.044C128.817 137.519 128.438 138.026 127.908 138.565C127.377 139.105 126.672 139.564 125.791 139.943C124.911 140.322 123.836 140.511 122.567 140.511ZM123.078 137.5C124.404 137.5 125.521 137.24 126.43 136.719C127.349 136.198 128.04 135.526 128.504 134.702C128.978 133.878 129.214 133.011 129.214 132.102V129.034C129.072 129.205 128.76 129.361 128.277 129.503C127.804 129.635 127.254 129.754 126.629 129.858C126.014 129.953 125.412 130.038 124.825 130.114C124.248 130.18 123.779 130.237 123.419 130.284C122.548 130.398 121.733 130.582 120.976 130.838C120.228 131.084 119.622 131.458 119.158 131.96C118.703 132.453 118.476 133.125 118.476 133.977C118.476 135.142 118.907 136.023 119.768 136.619C120.64 137.206 121.743 137.5 123.078 137.5ZM149.935 148.182V118.182H153.174V121.648H153.572C153.818 121.269 154.159 120.786 154.594 120.199C155.04 119.602 155.674 119.072 156.498 118.608C157.331 118.134 158.458 117.898 159.879 117.898C161.716 117.898 163.335 118.357 164.737 119.276C166.138 120.194 167.232 121.496 168.018 123.182C168.804 124.867 169.197 126.856 169.197 129.148C169.197 131.458 168.804 133.461 168.018 135.156C167.232 136.842 166.143 138.149 164.751 139.077C163.359 139.995 161.754 140.455 159.935 140.455C158.534 140.455 157.412 140.223 156.569 139.759C155.726 139.285 155.077 138.75 154.623 138.153C154.168 137.547 153.818 137.045 153.572 136.648H153.288V148.182H149.935ZM153.231 129.091C153.231 130.739 153.472 132.192 153.955 133.452C154.438 134.702 155.144 135.682 156.072 136.392C157 137.093 158.136 137.443 159.481 137.443C160.882 137.443 162.052 137.074 162.989 136.335C163.936 135.587 164.647 134.583 165.12 133.324C165.603 132.055 165.844 130.644 165.844 129.091C165.844 127.557 165.608 126.174 165.134 124.943C164.67 123.703 163.965 122.723 163.018 122.003C162.08 121.274 160.901 120.909 159.481 120.909C158.117 120.909 156.971 121.255 156.043 121.946C155.115 122.628 154.415 123.584 153.941 124.815C153.468 126.037 153.231 127.462 153.231 129.091ZM180.731 140.511C179.348 140.511 178.094 140.251 176.967 139.73C175.84 139.2 174.945 138.438 174.282 137.443C173.619 136.439 173.288 135.227 173.288 133.807C173.288 132.557 173.534 131.544 174.026 130.767C174.519 129.981 175.177 129.366 176.001 128.92C176.825 128.475 177.734 128.144 178.728 127.926C179.732 127.699 180.74 127.519 181.754 127.386C183.079 127.216 184.154 127.088 184.978 127.003C185.811 126.908 186.417 126.752 186.796 126.534C187.184 126.316 187.379 125.937 187.379 125.398V125.284C187.379 123.883 186.995 122.794 186.228 122.017C185.47 121.241 184.32 120.852 182.776 120.852C181.176 120.852 179.921 121.203 179.012 121.903C178.103 122.604 177.464 123.352 177.094 124.148L173.913 123.011C174.481 121.686 175.238 120.653 176.185 119.915C177.142 119.167 178.183 118.646 179.31 118.352C180.447 118.049 181.564 117.898 182.663 117.898C183.363 117.898 184.168 117.983 185.077 118.153C185.996 118.314 186.881 118.651 187.734 119.162C188.595 119.673 189.31 120.445 189.879 121.477C190.447 122.509 190.731 123.892 190.731 125.625V140H187.379V137.045H187.208C186.981 137.519 186.602 138.026 186.072 138.565C185.541 139.105 184.836 139.564 183.955 139.943C183.075 140.322 182 140.511 180.731 140.511ZM181.242 137.5C182.568 137.5 183.685 137.24 184.594 136.719C185.513 136.198 186.204 135.526 186.668 134.702C187.142 133.878 187.379 133.011 187.379 132.102V129.034C187.237 129.205 186.924 129.361 186.441 129.503C185.968 129.635 185.418 129.754 184.793 129.858C184.178 129.953 183.576 130.038 182.989 130.114C182.412 130.18 181.943 130.237 181.583 130.284C180.712 130.398 179.897 130.582 179.14 130.838C178.392 131.084 177.786 131.458 177.322 131.96C176.867 132.453 176.64 133.125 176.64 133.977C176.64 135.142 177.071 136.023 177.933 136.619C178.804 137.206 179.907 137.5 181.242 137.5ZM196.849 140V118.182H200.088V121.477H200.315C200.713 120.398 201.433 119.522 202.474 118.849C203.516 118.177 204.69 117.841 205.997 117.841C206.243 117.841 206.551 117.846 206.92 117.855C207.29 117.865 207.569 117.879 207.759 117.898V121.307C207.645 121.278 207.384 121.236 206.977 121.179C206.58 121.113 206.158 121.08 205.713 121.08C204.652 121.08 203.705 121.302 202.872 121.747C202.048 122.183 201.395 122.789 200.912 123.565C200.438 124.332 200.202 125.208 200.202 126.193V140H196.849ZM222.588 118.182V121.023H211.281V118.182H222.588ZM214.577 112.955H217.929V133.75C217.929 134.697 218.066 135.407 218.341 135.881C218.625 136.345 218.985 136.657 219.42 136.818C219.866 136.97 220.334 137.045 220.827 137.045C221.196 137.045 221.499 137.027 221.736 136.989C221.973 136.941 222.162 136.903 222.304 136.875L222.986 139.886C222.759 139.972 222.441 140.057 222.034 140.142C221.627 140.237 221.111 140.284 220.486 140.284C219.539 140.284 218.611 140.08 217.702 139.673C216.802 139.266 216.054 138.646 215.457 137.812C214.87 136.979 214.577 135.928 214.577 134.659V112.955ZM236.544 140.455C234.442 140.455 232.628 139.991 231.104 139.062C229.589 138.125 228.419 136.818 227.595 135.142C226.781 133.456 226.374 131.496 226.374 129.261C226.374 127.027 226.781 125.057 227.595 123.352C228.419 121.638 229.565 120.303 231.033 119.347C232.51 118.381 234.233 117.898 236.203 117.898C237.339 117.898 238.462 118.087 239.57 118.466C240.678 118.845 241.686 119.46 242.595 120.312C243.504 121.155 244.229 122.273 244.768 123.665C245.308 125.057 245.578 126.771 245.578 128.807V130.227H228.76V127.33H242.169C242.169 126.098 241.923 125 241.43 124.034C240.947 123.068 240.256 122.306 239.357 121.747C238.466 121.188 237.415 120.909 236.203 120.909C234.868 120.909 233.713 121.241 232.737 121.903C231.771 122.557 231.028 123.409 230.507 124.46C229.986 125.511 229.726 126.638 229.726 127.841V129.773C229.726 131.42 230.01 132.817 230.578 133.963C231.156 135.099 231.956 135.966 232.979 136.562C234.001 137.15 235.19 137.443 236.544 137.443C237.425 137.443 238.22 137.32 238.93 137.074C239.65 136.818 240.27 136.439 240.791 135.938C241.312 135.426 241.714 134.792 241.999 134.034L245.237 134.943C244.896 136.042 244.323 137.008 243.518 137.841C242.714 138.665 241.719 139.309 240.536 139.773C239.352 140.227 238.021 140.455 236.544 140.455ZM271.643 118.182V121.023H259.882V118.182H271.643ZM263.405 140V115.17C263.405 113.92 263.698 112.879 264.286 112.045C264.873 111.212 265.635 110.587 266.572 110.17C267.51 109.754 268.5 109.545 269.541 109.545C270.365 109.545 271.037 109.612 271.558 109.744C272.079 109.877 272.467 110 272.723 110.114L271.757 113.011C271.587 112.955 271.35 112.884 271.047 112.798C270.753 112.713 270.365 112.67 269.882 112.67C268.774 112.67 267.974 112.95 267.482 113.509C266.999 114.067 266.757 114.886 266.757 115.966V140H263.405ZM290.092 131.08V118.182H293.444V140H290.092V136.307H289.864C289.353 137.415 288.558 138.357 287.478 139.134C286.398 139.901 285.035 140.284 283.387 140.284C282.023 140.284 280.811 139.986 279.751 139.389C278.69 138.783 277.857 137.874 277.251 136.662C276.645 135.44 276.342 133.902 276.342 132.045V118.182H279.694V131.818C279.694 133.409 280.139 134.678 281.029 135.625C281.929 136.572 283.075 137.045 284.467 137.045C285.3 137.045 286.147 136.832 287.009 136.406C287.88 135.98 288.61 135.327 289.197 134.446C289.793 133.565 290.092 132.443 290.092 131.08ZM302.936 126.875V140H299.584V118.182H302.822V121.591H303.107C303.618 120.483 304.394 119.593 305.436 118.92C306.478 118.239 307.822 117.898 309.47 117.898C310.947 117.898 312.24 118.201 313.348 118.807C314.456 119.403 315.318 120.312 315.933 121.534C316.549 122.746 316.857 124.28 316.857 126.136V140H313.504V126.364C313.504 124.65 313.059 123.314 312.169 122.358C311.279 121.392 310.057 120.909 308.504 120.909C307.434 120.909 306.478 121.141 305.635 121.605C304.802 122.069 304.143 122.746 303.661 123.636C303.178 124.527 302.936 125.606 302.936 126.875ZM331.221 140.455C329.403 140.455 327.798 139.995 326.406 139.077C325.013 138.149 323.924 136.842 323.138 135.156C322.353 133.461 321.96 131.458 321.96 129.148C321.96 126.856 322.353 124.867 323.138 123.182C323.924 121.496 325.018 120.194 326.42 119.276C327.821 118.357 329.441 117.898 331.278 117.898C332.698 117.898 333.82 118.134 334.644 118.608C335.478 119.072 336.112 119.602 336.548 120.199C336.993 120.786 337.338 121.269 337.585 121.648H337.869V110.909H341.221V140H337.982V136.648H337.585C337.338 137.045 336.988 137.547 336.533 138.153C336.079 138.75 335.43 139.285 334.587 139.759C333.745 140.223 332.622 140.455 331.221 140.455ZM331.675 137.443C333.02 137.443 334.156 137.093 335.085 136.392C336.013 135.682 336.718 134.702 337.201 133.452C337.684 132.192 337.925 130.739 337.925 129.091C337.925 127.462 337.689 126.037 337.215 124.815C336.742 123.584 336.041 122.628 335.113 121.946C334.185 121.255 333.039 120.909 331.675 120.909C330.255 120.909 329.071 121.274 328.124 122.003C327.187 122.723 326.481 123.703 326.008 124.943C325.544 126.174 325.312 127.557 325.312 129.091C325.312 130.644 325.549 132.055 326.022 133.324C326.505 134.583 327.215 135.587 328.153 136.335C329.1 137.074 330.274 137.443 331.675 137.443ZM354.246 140.511C352.864 140.511 351.609 140.251 350.482 139.73C349.355 139.2 348.46 138.438 347.798 137.443C347.135 136.439 346.803 135.227 346.803 133.807C346.803 132.557 347.049 131.544 347.542 130.767C348.034 129.981 348.692 129.366 349.516 128.92C350.34 128.475 351.249 128.144 352.244 127.926C353.247 127.699 354.256 127.519 355.269 127.386C356.595 127.216 357.67 127.088 358.494 127.003C359.327 126.908 359.933 126.752 360.312 126.534C360.7 126.316 360.894 125.937 360.894 125.398V125.284C360.894 123.883 360.511 122.794 359.744 122.017C358.986 121.241 357.835 120.852 356.292 120.852C354.692 120.852 353.437 121.203 352.528 121.903C351.619 122.604 350.979 123.352 350.61 124.148L347.428 123.011C347.996 121.686 348.754 120.653 349.701 119.915C350.657 119.167 351.699 118.646 352.826 118.352C353.962 118.049 355.08 117.898 356.178 117.898C356.879 117.898 357.684 117.983 358.593 118.153C359.512 118.314 360.397 118.651 361.249 119.162C362.111 119.673 362.826 120.445 363.394 121.477C363.962 122.509 364.246 123.892 364.246 125.625V140H360.894V137.045H360.724C360.496 137.519 360.118 138.026 359.587 138.565C359.057 139.105 358.352 139.564 357.471 139.943C356.59 140.322 355.515 140.511 354.246 140.511ZM354.758 137.5C356.084 137.5 357.201 137.24 358.11 136.719C359.029 136.198 359.72 135.526 360.184 134.702C360.657 133.878 360.894 133.011 360.894 132.102V129.034C360.752 129.205 360.44 129.361 359.957 129.503C359.483 129.635 358.934 129.754 358.309 129.858C357.693 129.953 357.092 130.038 356.505 130.114C355.927 130.18 355.459 130.237 355.099 130.284C354.228 130.398 353.413 130.582 352.656 130.838C351.907 131.084 351.301 131.458 350.837 131.96C350.383 132.453 350.156 133.125 350.156 133.977C350.156 135.142 350.586 136.023 351.448 136.619C352.319 137.206 353.423 137.5 354.758 137.5ZM370.365 140V118.182H373.604V121.591H373.888C374.342 120.426 375.076 119.522 376.089 118.878C377.103 118.224 378.32 117.898 379.74 117.898C381.179 117.898 382.377 118.224 383.334 118.878C384.3 119.522 385.053 120.426 385.592 121.591H385.82C386.378 120.464 387.216 119.569 388.334 118.906C389.451 118.234 390.791 117.898 392.354 117.898C394.304 117.898 395.9 118.509 397.141 119.73C398.381 120.942 399.001 122.831 399.001 125.398V140H395.649V125.398C395.649 123.788 395.209 122.637 394.328 121.946C393.447 121.255 392.411 120.909 391.217 120.909C389.683 120.909 388.495 121.373 387.652 122.301C386.809 123.22 386.388 124.384 386.388 125.795V140H382.979V125.057C382.979 123.816 382.576 122.817 381.771 122.06C380.966 121.293 379.929 120.909 378.661 120.909C377.789 120.909 376.975 121.141 376.217 121.605C375.469 122.069 374.863 122.713 374.399 123.537C373.945 124.351 373.717 125.294 373.717 126.364V140H370.365ZM414.278 140.455C412.176 140.455 410.363 139.991 408.838 139.062C407.323 138.125 406.153 136.818 405.33 135.142C404.515 133.456 404.108 131.496 404.108 129.261C404.108 127.027 404.515 125.057 405.33 123.352C406.153 121.638 407.299 120.303 408.767 119.347C410.244 118.381 411.968 117.898 413.938 117.898C415.074 117.898 416.196 118.087 417.304 118.466C418.412 118.845 419.42 119.46 420.33 120.312C421.239 121.155 421.963 122.273 422.503 123.665C423.043 125.057 423.312 126.771 423.312 128.807V130.227H406.494V127.33H419.903C419.903 126.098 419.657 125 419.165 124.034C418.682 123.068 417.991 122.306 417.091 121.747C416.201 121.188 415.15 120.909 413.938 120.909C412.602 120.909 411.447 121.241 410.472 121.903C409.506 122.557 408.762 123.409 408.241 124.46C407.721 125.511 407.46 126.638 407.46 127.841V129.773C407.46 131.42 407.744 132.817 408.312 133.963C408.89 135.099 409.69 135.966 410.713 136.562C411.736 137.15 412.924 137.443 414.278 137.443C415.159 137.443 415.955 137.32 416.665 137.074C417.384 136.818 418.005 136.439 418.526 135.938C419.046 135.426 419.449 134.792 419.733 134.034L422.972 134.943C422.631 136.042 422.058 137.008 421.253 137.841C420.448 138.665 419.454 139.309 418.27 139.773C417.086 140.227 415.756 140.455 414.278 140.455ZM431.764 126.875V140H428.412V118.182H431.651V121.591H431.935C432.446 120.483 433.223 119.593 434.264 118.92C435.306 118.239 436.651 117.898 438.298 117.898C439.776 117.898 441.068 118.201 442.176 118.807C443.284 119.403 444.146 120.312 444.761 121.534C445.377 122.746 445.685 124.28 445.685 126.136V140H442.332V126.364C442.332 124.65 441.887 123.314 440.997 122.358C440.107 121.392 438.885 120.909 437.332 120.909C436.262 120.909 435.306 121.141 434.463 121.605C433.63 122.069 432.972 122.746 432.489 123.636C432.006 124.527 431.764 125.606 431.764 126.875ZM461.299 118.182V121.023H449.992V118.182H461.299ZM453.288 112.955H456.64V133.75C456.64 134.697 456.777 135.407 457.052 135.881C457.336 136.345 457.696 136.657 458.131 136.818C458.576 136.97 459.045 137.045 459.538 137.045C459.907 137.045 460.21 137.027 460.447 136.989C460.683 136.941 460.873 136.903 461.015 136.875L461.697 139.886C461.469 139.972 461.152 140.057 460.745 140.142C460.338 140.237 459.822 140.284 459.197 140.284C458.25 140.284 457.322 140.08 456.413 139.673C455.513 139.266 454.765 138.646 454.168 137.812C453.581 136.979 453.288 135.928 453.288 134.659V112.955ZM472.762 140.511C471.379 140.511 470.125 140.251 468.998 139.73C467.871 139.2 466.976 138.438 466.313 137.443C465.65 136.439 465.319 135.227 465.319 133.807C465.319 132.557 465.565 131.544 466.058 130.767C466.55 129.981 467.208 129.366 468.032 128.92C468.856 128.475 469.765 128.144 470.759 127.926C471.763 127.699 472.772 127.519 473.785 127.386C475.111 127.216 476.185 127.088 477.009 127.003C477.843 126.908 478.449 126.752 478.827 126.534C479.216 126.316 479.41 125.937 479.41 125.398V125.284C479.41 123.883 479.026 122.794 478.259 122.017C477.502 121.241 476.351 120.852 474.808 120.852C473.207 120.852 471.952 121.203 471.043 121.903C470.134 122.604 469.495 123.352 469.126 124.148L465.944 123.011C466.512 121.686 467.27 120.653 468.217 119.915C469.173 119.167 470.215 118.646 471.342 118.352C472.478 118.049 473.595 117.898 474.694 117.898C475.395 117.898 476.2 117.983 477.109 118.153C478.027 118.314 478.913 118.651 479.765 119.162C480.627 119.673 481.342 120.445 481.91 121.477C482.478 122.509 482.762 123.892 482.762 125.625V140H479.41V137.045H479.239C479.012 137.519 478.633 138.026 478.103 138.565C477.573 139.105 476.867 139.564 475.987 139.943C475.106 140.322 474.031 140.511 472.762 140.511ZM473.273 137.5C474.599 137.5 475.717 137.24 476.626 136.719C477.544 136.198 478.236 135.526 478.7 134.702C479.173 133.878 479.41 133.011 479.41 132.102V129.034C479.268 129.205 478.955 129.361 478.472 129.503C477.999 129.635 477.45 129.754 476.825 129.858C476.209 129.953 475.608 130.038 475.021 130.114C474.443 130.18 473.974 130.237 473.614 130.284C472.743 130.398 471.929 130.582 471.171 130.838C470.423 131.084 469.817 131.458 469.353 131.96C468.898 132.453 468.671 133.125 468.671 133.977C468.671 135.142 469.102 136.023 469.964 136.619C470.835 137.206 471.938 137.5 473.273 137.5ZM492.233 110.909V140H488.881V110.909H492.233ZM59.3068 188.455C57.4886 188.455 55.8835 187.995 54.4915 187.077C53.0994 186.149 52.0104 184.842 51.2244 183.156C50.4384 181.461 50.0455 179.458 50.0455 177.148C50.0455 174.856 50.4384 172.867 51.2244 171.182C52.0104 169.496 53.1042 168.194 54.5057 167.276C55.9072 166.357 57.5265 165.898 59.3636 165.898C60.7841 165.898 61.9063 166.134 62.7301 166.608C63.5634 167.072 64.1979 167.602 64.6335 168.199C65.0786 168.786 65.4242 169.269 65.6705 169.648H65.9545V158.909H69.3068V188H66.0682V184.648H65.6705C65.4242 185.045 65.0739 185.547 64.6193 186.153C64.1648 186.75 63.5161 187.285 62.6733 187.759C61.8305 188.223 60.7083 188.455 59.3068 188.455ZM59.7614 185.443C61.1061 185.443 62.2424 185.093 63.1705 184.392C64.0985 183.682 64.804 182.702 65.2869 181.452C65.7699 180.192 66.0114 178.739 66.0114 177.091C66.0114 175.462 65.7746 174.037 65.3011 172.815C64.8277 171.584 64.1269 170.628 63.1989 169.946C62.2708 169.255 61.125 168.909 59.7614 168.909C58.3409 168.909 57.1572 169.274 56.2102 170.003C55.2727 170.723 54.5672 171.703 54.0938 172.943C53.6297 174.174 53.3977 175.557 53.3977 177.091C53.3977 178.644 53.6345 180.055 54.108 181.324C54.5909 182.583 55.3011 183.587 56.2386 184.335C57.1856 185.074 58.3598 185.443 59.7614 185.443ZM82.3324 188.511C80.9498 188.511 79.6951 188.251 78.5682 187.73C77.4413 187.2 76.5464 186.438 75.8835 185.443C75.2206 184.439 74.8892 183.227 74.8892 181.807C74.8892 180.557 75.1354 179.544 75.6278 178.767C76.1203 177.981 76.7784 177.366 77.6023 176.92C78.4261 176.475 79.3352 176.144 80.3295 175.926C81.3333 175.699 82.3419 175.519 83.3551 175.386C84.6809 175.216 85.7557 175.088 86.5795 175.003C87.4129 174.908 88.0189 174.752 88.3977 174.534C88.786 174.316 88.9801 173.937 88.9801 173.398V173.284C88.9801 171.883 88.5966 170.794 87.8295 170.017C87.072 169.241 85.9214 168.852 84.3778 168.852C82.7775 168.852 81.5227 169.203 80.6136 169.903C79.7045 170.604 79.0653 171.352 78.696 172.148L75.5142 171.011C76.0824 169.686 76.84 168.653 77.7869 167.915C78.7434 167.167 79.785 166.646 80.9119 166.352C82.0483 166.049 83.1657 165.898 84.2642 165.898C84.965 165.898 85.7699 165.983 86.679 166.153C87.5975 166.314 88.483 166.651 89.3352 167.162C90.197 167.673 90.9119 168.445 91.4801 169.477C92.0483 170.509 92.3324 171.892 92.3324 173.625V188H88.9801V185.045H88.8097C88.5824 185.519 88.2036 186.026 87.6733 186.565C87.143 187.105 86.4375 187.564 85.5568 187.943C84.6761 188.322 83.6013 188.511 82.3324 188.511ZM82.8438 185.5C84.1695 185.5 85.2869 185.24 86.196 184.719C87.1146 184.198 87.8059 183.526 88.2699 182.702C88.7434 181.878 88.9801 181.011 88.9801 180.102V177.034C88.8381 177.205 88.5256 177.361 88.0426 177.503C87.5691 177.635 87.0199 177.754 86.3949 177.858C85.7794 177.953 85.178 178.038 84.5909 178.114C84.0133 178.18 83.5445 178.237 83.1847 178.284C82.3134 178.398 81.4991 178.582 80.7415 178.838C79.9934 179.084 79.3873 179.458 78.9233 179.96C78.4688 180.453 78.2415 181.125 78.2415 181.977C78.2415 183.142 78.6723 184.023 79.5341 184.619C80.4053 185.206 81.5085 185.5 82.8438 185.5ZM127.201 172.403L121.661 172.744C121.567 172.271 121.363 171.845 121.05 171.466C120.738 171.078 120.326 170.77 119.815 170.543C119.313 170.306 118.711 170.188 118.011 170.188C117.073 170.188 116.282 170.386 115.638 170.784C114.995 171.172 114.673 171.693 114.673 172.347C114.673 172.867 114.881 173.308 115.298 173.668C115.714 174.027 116.429 174.316 117.442 174.534L121.391 175.33C123.513 175.765 125.094 176.466 126.136 177.432C127.177 178.398 127.698 179.667 127.698 181.239C127.698 182.669 127.277 183.923 126.434 185.003C125.601 186.082 124.455 186.925 122.996 187.531C121.548 188.128 119.876 188.426 117.982 188.426C115.094 188.426 112.793 187.825 111.079 186.622C109.374 185.41 108.375 183.762 108.082 181.679L114.033 181.366C114.213 182.247 114.649 182.92 115.34 183.384C116.031 183.838 116.917 184.065 117.996 184.065C119.057 184.065 119.909 183.862 120.553 183.455C121.207 183.038 121.538 182.503 121.548 181.849C121.538 181.3 121.306 180.85 120.852 180.5C120.397 180.14 119.696 179.866 118.749 179.676L114.971 178.923C112.84 178.497 111.254 177.759 110.212 176.707C109.18 175.656 108.664 174.316 108.664 172.688C108.664 171.286 109.043 170.079 109.8 169.065C110.567 168.052 111.642 167.271 113.025 166.722C114.417 166.172 116.046 165.898 117.911 165.898C120.667 165.898 122.835 166.48 124.417 167.645C126.008 168.81 126.936 170.396 127.201 172.403ZM145.5 178.71V166.182H151.551V188H145.741V184.037H145.514C145.022 185.315 144.203 186.343 143.057 187.119C141.92 187.896 140.533 188.284 138.895 188.284C137.437 188.284 136.153 187.953 135.045 187.29C133.938 186.627 133.071 185.685 132.446 184.463C131.83 183.241 131.518 181.778 131.509 180.074V166.182H137.56V178.994C137.569 180.282 137.915 181.3 138.597 182.048C139.278 182.796 140.192 183.17 141.338 183.17C142.067 183.17 142.749 183.005 143.384 182.673C144.018 182.332 144.529 181.83 144.918 181.168C145.315 180.505 145.509 179.686 145.5 178.71ZM162.613 188.412C161.221 188.412 159.98 188.17 158.891 187.688C157.802 187.195 156.941 186.471 156.306 185.514C155.681 184.548 155.369 183.346 155.369 181.906C155.369 180.694 155.591 179.676 156.036 178.852C156.481 178.028 157.087 177.366 157.854 176.864C158.621 176.362 159.493 175.983 160.468 175.727C161.453 175.472 162.485 175.292 163.565 175.188C164.834 175.055 165.856 174.932 166.633 174.818C167.409 174.695 167.973 174.515 168.323 174.278C168.674 174.042 168.849 173.691 168.849 173.227V173.142C168.849 172.242 168.565 171.546 167.996 171.054C167.438 170.562 166.642 170.315 165.61 170.315C164.521 170.315 163.655 170.557 163.011 171.04C162.367 171.513 161.941 172.11 161.732 172.83L156.136 172.375C156.42 171.049 156.978 169.903 157.812 168.938C158.645 167.962 159.72 167.214 161.036 166.693C162.362 166.163 163.896 165.898 165.638 165.898C166.851 165.898 168.011 166.04 169.119 166.324C170.236 166.608 171.226 167.048 172.087 167.645C172.959 168.241 173.645 169.009 174.147 169.946C174.649 170.874 174.9 171.987 174.9 173.284V188H169.161V184.974H168.991C168.64 185.656 168.172 186.258 167.585 186.778C166.997 187.29 166.292 187.692 165.468 187.986C164.644 188.27 163.692 188.412 162.613 188.412ZM164.346 184.236C165.236 184.236 166.022 184.061 166.704 183.71C167.386 183.35 167.921 182.867 168.309 182.261C168.697 181.655 168.891 180.969 168.891 180.202V177.886C168.702 178.009 168.442 178.123 168.11 178.227C167.788 178.322 167.424 178.412 167.016 178.497C166.609 178.573 166.202 178.644 165.795 178.71C165.388 178.767 165.018 178.819 164.687 178.866C163.977 178.971 163.356 179.136 162.826 179.364C162.296 179.591 161.884 179.899 161.59 180.287C161.297 180.666 161.15 181.139 161.15 181.707C161.15 182.531 161.448 183.161 162.045 183.597C162.651 184.023 163.418 184.236 164.346 184.236ZM209.193 166.182L201.565 188H194.747L187.119 166.182H193.511L198.043 181.793H198.27L202.787 166.182H209.193ZM212.29 188V166.182H218.341V188H212.29ZM215.33 163.369C214.43 163.369 213.658 163.071 213.014 162.474C212.38 161.868 212.062 161.144 212.062 160.301C212.062 159.468 212.38 158.753 213.014 158.156C213.658 157.55 214.43 157.247 215.33 157.247C216.229 157.247 216.996 157.55 217.631 158.156C218.275 158.753 218.597 159.468 218.597 160.301C218.597 161.144 218.275 161.868 217.631 162.474C216.996 163.071 216.229 163.369 215.33 163.369ZM231.228 188.355C229.571 188.355 228.07 187.929 226.725 187.077C225.39 186.215 224.329 184.951 223.543 183.284C222.767 181.608 222.379 179.553 222.379 177.119C222.379 174.619 222.781 172.541 223.586 170.884C224.391 169.217 225.461 167.972 226.796 167.148C228.141 166.314 229.613 165.898 231.214 165.898C232.435 165.898 233.453 166.106 234.268 166.523C235.092 166.93 235.754 167.441 236.256 168.057C236.768 168.663 237.156 169.259 237.421 169.847H237.606V158.909H243.643V188H237.677V184.506H237.421C237.137 185.112 236.735 185.713 236.214 186.31C235.702 186.897 235.035 187.384 234.211 187.773C233.397 188.161 232.402 188.355 231.228 188.355ZM233.146 183.54C234.121 183.54 234.945 183.275 235.617 182.744C236.299 182.205 236.82 181.452 237.18 180.486C237.549 179.52 237.734 178.388 237.734 177.091C237.734 175.794 237.554 174.667 237.194 173.71C236.834 172.754 236.313 172.015 235.631 171.494C234.95 170.973 234.121 170.713 233.146 170.713C232.151 170.713 231.313 170.983 230.631 171.523C229.95 172.062 229.433 172.811 229.083 173.767C228.733 174.723 228.558 175.831 228.558 177.091C228.558 178.36 228.733 179.482 229.083 180.457C229.443 181.423 229.959 182.181 230.631 182.73C231.313 183.27 232.151 183.54 233.146 183.54ZM254.839 188.412C253.447 188.412 252.207 188.17 251.118 187.688C250.029 187.195 249.167 186.471 248.533 185.514C247.908 184.548 247.595 183.346 247.595 181.906C247.595 180.694 247.818 179.676 248.263 178.852C248.708 178.028 249.314 177.366 250.081 176.864C250.848 176.362 251.719 175.983 252.695 175.727C253.679 175.472 254.712 175.292 255.791 175.188C257.06 175.055 258.083 174.932 258.859 174.818C259.636 174.695 260.199 174.515 260.55 174.278C260.9 174.042 261.075 173.691 261.075 173.227V173.142C261.075 172.242 260.791 171.546 260.223 171.054C259.664 170.562 258.869 170.315 257.837 170.315C256.748 170.315 255.881 170.557 255.237 171.04C254.593 171.513 254.167 172.11 253.959 172.83L248.362 172.375C248.646 171.049 249.205 169.903 250.038 168.938C250.872 167.962 251.946 167.214 253.263 166.693C254.589 166.163 256.123 165.898 257.865 165.898C259.077 165.898 260.237 166.04 261.345 166.324C262.463 166.608 263.452 167.048 264.314 167.645C265.185 168.241 265.872 169.009 266.374 169.946C266.875 170.874 267.126 171.987 267.126 173.284V188H261.388V184.974H261.217C260.867 185.656 260.398 186.258 259.811 186.778C259.224 187.29 258.518 187.692 257.695 187.986C256.871 188.27 255.919 188.412 254.839 188.412ZM256.572 184.236C257.463 184.236 258.249 184.061 258.93 183.71C259.612 183.35 260.147 182.867 260.536 182.261C260.924 181.655 261.118 180.969 261.118 180.202V177.886C260.929 178.009 260.668 178.123 260.337 178.227C260.015 178.322 259.65 178.412 259.243 178.497C258.836 178.573 258.429 178.644 258.021 178.71C257.614 178.767 257.245 178.819 256.913 178.866C256.203 178.971 255.583 179.136 255.053 179.364C254.522 179.591 254.11 179.899 253.817 180.287C253.523 180.666 253.376 181.139 253.376 181.707C253.376 182.531 253.675 183.161 254.271 183.597C254.877 184.023 255.644 184.236 256.572 184.236ZM279.051 158.909L278.497 179.278H273.298L272.73 158.909H279.051ZM275.898 188.369C274.96 188.369 274.155 188.038 273.483 187.375C272.811 186.703 272.479 185.898 272.489 184.96C272.479 184.032 272.811 183.237 273.483 182.574C274.155 181.911 274.96 181.58 275.898 181.58C276.797 181.58 277.588 181.911 278.27 182.574C278.952 183.237 279.297 184.032 279.307 184.96C279.297 185.585 279.132 186.158 278.81 186.679C278.497 187.19 278.085 187.602 277.574 187.915C277.062 188.218 276.504 188.369 275.898 188.369Z" fill="white"/>
<g clip-path="url(#clip0_218_1144)">
<path d="M338.027 769.307L344.644 747.756C336.682 738.993 326.701 732.306 315.568 728.276C326.445 746.296 315.906 769.803 320.298 790.387C321.717 796.797 324.56 802.805 328.616 807.967C332.673 813.128 337.839 817.31 343.732 820.204L353.774 832.646C359.039 823.449 362.246 813.219 363.177 802.662C364.107 792.105 362.738 781.472 359.163 771.496C357.102 765.919 354.347 760.623 350.963 755.735C344.996 762.75 338.027 769.307 338.027 769.307Z" fill="#F2F2F2"/>
<path d="M301.639 772.061L297.951 749.821C286.916 745.528 275.001 743.995 263.239 745.352C281.011 756.63 282.061 782.37 295.172 798.835C299.301 803.939 304.525 808.049 310.458 810.86C316.391 813.67 322.88 815.109 329.445 815.071L343.982 821.729C344.592 811.149 342.901 800.562 339.025 790.699C335.15 780.835 329.182 771.929 321.533 764.594C317.201 760.521 312.374 757.01 307.165 754.144C304.953 763.084 301.639 772.061 301.639 772.061Z" fill="#F2F2F2"/>
<path d="M518.222 827.115L508.029 827.115L503.18 787.799L518.224 787.8L518.222 827.115Z" fill="#FFB6B6"/>
<path d="M520.821 836.996L487.955 836.995V836.58C487.955 833.187 489.303 829.933 491.702 827.534C494.101 825.135 497.355 823.787 500.748 823.787H500.748L506.752 819.233L517.953 823.788L520.822 823.788L520.821 836.996Z" fill="#2F2E41"/>
<path d="M682.879 789.937L675.929 797.393L643.861 774.134L654.119 763.13L682.879 789.937Z" fill="#FFB6B6"/>
<path d="M691.877 794.771L669.468 818.814L669.164 818.53C666.682 816.217 665.221 813.013 665.102 809.622C664.982 806.231 666.215 802.932 668.528 800.45L669.29 792.952L680.259 787.864L682.215 785.765L691.877 794.771Z" fill="#2F2E41"/>
<path d="M667.795 767.841L657.021 790.374L590.863 746.571L581.238 733.457L549.681 690.46L536.853 710.815L527.927 732.093C525.018 733.99 522.567 736.51 520.75 739.47C518.933 742.43 517.797 745.757 517.423 749.21L517.014 752.977L522.655 803.682L501.217 810.264L488.904 742.149L492.929 727.389L497.073 706.671L517.936 641.2H573.763L605.784 709.358L608.125 723.246L617.204 733.665L667.795 767.841Z" fill="#2F2E41"/>
<path d="M551.774 534.083L561.172 541.239L572.506 544.722C572.506 544.722 577.192 610.631 581.414 614.853C585.636 619.075 581.828 619.188 582.676 624.673C583.525 630.157 585.587 641.4 585.587 641.4C557.089 656.485 532.52 656.89 512.786 639.237C512.533 638.145 512.661 637 513.149 635.991C513.637 634.982 514.455 634.17 515.467 633.689C519.14 631.74 512.082 622.644 515.083 621.123C518.085 619.602 513.863 606.409 513.863 606.409L516.633 578.882L514.444 574.481L519.784 547.556L529.05 544.173L532.751 535.255L551.774 534.083Z" fill="#F5D6FA"/>
<path d="M557.661 651.224C557.619 650.034 557.839 648.849 558.304 647.753C558.769 646.656 559.47 645.676 560.355 644.879C561.241 644.083 562.29 643.49 563.429 643.143C564.569 642.796 565.77 642.703 566.949 642.87L580.194 617.127L587.573 630.237L573.864 652.674C573.452 654.636 572.333 656.379 570.722 657.572C569.11 658.765 567.116 659.325 565.119 659.146C563.122 658.967 561.26 658.062 559.885 656.602C558.511 655.142 557.719 653.229 557.661 651.224Z" fill="#FFB6B6"/>
<path d="M579.966 644.927L608.374 600.898L608.28 600.696C608.173 600.464 601.74 586.57 595.507 573.845C594.547 571.885 593.592 569.953 592.665 568.103C592.265 567.304 591.871 566.522 591.483 565.757C588.865 560.596 586.578 556.33 585.213 554.304C582.193 549.722 577.696 546.311 572.47 544.637L572.339 544.604L572.214 544.656C569.657 545.735 567.545 547.652 566.225 550.092C564.905 552.533 564.456 555.35 564.951 558.08C567.416 571.246 572.906 583.66 580.99 594.341L585.595 600.412L569.591 635.207L579.966 644.927Z" fill="#F5D6FA"/>
<path d="M482.279 476.157C483.062 477.055 483.638 478.114 483.966 479.259C484.295 480.403 484.369 481.606 484.183 482.783C483.996 483.959 483.554 485.08 482.888 486.067C482.221 487.054 481.346 487.883 480.325 488.495L486.246 516.834L472.258 511.296L468.779 485.234C467.864 483.45 467.636 481.392 468.137 479.45C468.638 477.508 469.834 475.818 471.498 474.699C473.162 473.58 475.178 473.111 477.166 473.379C479.153 473.648 480.972 474.636 482.279 476.157Z" fill="#FFB6B6"/>
<path d="M468.917 495.095L474.574 547.187L474.774 547.285C474.939 547.366 482.106 550.881 490.903 555.067C492.387 555.774 492.174 558.833 493.725 559.564C494.793 560.068 497.615 558.24 498.694 558.745C508.309 563.242 518.032 567.614 521.907 568.799C527.138 570.456 532.779 570.274 537.892 568.284L538.016 568.227L538.08 568.108C539.387 565.66 539.82 562.841 539.309 560.114C538.798 557.387 537.373 554.915 535.269 553.107C525.064 544.43 512.981 538.244 499.976 535.037L492.575 533.221L483.098 496.113L468.917 495.095Z" fill="#F5D6FA"/>
<path d="M541.754 531.131C552.02 531.131 560.343 522.808 560.343 512.542C560.343 502.275 552.02 493.952 541.754 493.952C531.487 493.952 523.164 502.275 523.164 512.542C523.164 522.808 531.487 531.131 541.754 531.131Z" fill="#FFB6B6"/>
<path d="M523.298 500.085C524.826 495.638 532.437 492.553 544.774 492.124C557.111 491.695 560.24 506.234 560.24 506.234C568.476 512.915 551.446 530.802 550.622 530.158L550.992 526.797C551.606 521.231 554.212 516.888 550.897 511.086L547.714 511.123C543.603 511.913 539.492 512.704 535.381 513.495L540.248 509.209L540.111 508.997C538.04 510.075 535.787 510.759 533.467 511.014C530.851 511.168 527.991 510.127 526.738 507.825C526.403 507.193 526.199 506.499 526.137 505.786C522.609 507.196 520.996 511.545 520.996 511.545C520.996 511.545 521.769 504.533 523.298 500.085Z" fill="#2F2E41"/>
<path d="M160.897 501.2C160.645 500.88 160.373 500.576 160.084 500.29C160.155 500.193 160.225 500.087 160.296 499.99L160.897 501.2Z" fill="#2F2E41"/>
<path d="M164.512 575.967C161.471 581.368 155.399 584.382 149.379 585.858C142.617 587.629 135.497 587.492 128.809 585.46C127.96 585.186 127.112 584.868 126.29 584.515C126.685 583.465 126.998 582.386 127.227 581.288C127.534 579.802 127.688 578.288 127.686 576.771C127.016 578.078 126.149 579.274 125.114 580.316C124.316 581.154 123.409 581.883 122.418 582.481C119.344 580.616 116.682 578.143 114.595 575.215C114.727 574.888 114.86 574.561 114.984 574.234C115.626 572.526 116.134 570.77 116.504 568.983C117.006 566.567 117.258 564.105 117.255 561.638C116.166 563.764 114.752 565.708 113.065 567.401C112.56 567.942 112.023 568.453 111.457 568.93C110.58 566.269 110.241 563.459 110.46 560.666C110.678 557.872 111.45 555.149 112.729 552.656C116.23 546.186 123.019 542.341 129.065 538.159C135.12 533.978 141.176 528.321 141.688 520.975C142.033 516.016 139.735 511.048 140.654 506.169C141.041 504.111 141.985 502.199 143.383 500.641C144.781 499.082 146.58 497.938 148.584 497.331C150.588 496.725 152.72 496.68 154.748 497.202C156.776 497.724 158.621 498.792 160.084 500.29C156.654 505.152 153.242 510.182 151.854 515.963C150.44 521.85 151.598 528.754 156.238 532.652C157.829 533.996 159.783 534.951 161.012 536.63C162.647 538.858 162.656 541.828 162.921 544.568C163.451 549.898 165.193 555.025 166.13 560.303C167.076 565.571 167.129 571.29 164.512 575.967Z" fill="#2F2E41"/>
<path d="M102.177 795.176L110.245 801.409L138.127 773.258L126.22 764.058L102.177 795.176Z" fill="#A0616A"/>
<path d="M102.519 789.087L115.861 798.18L111.639 803.643L117.293 821.386C117.572 822.262 117.564 823.205 117.27 824.076C116.976 824.947 116.411 825.702 115.657 826.229C114.904 826.757 114.001 827.03 113.082 827.008C112.162 826.986 111.274 826.671 110.546 826.109L95.3634 814.377L96.9225 806.95L91.7245 811.565L86 807.142L102.519 789.087Z" fill="#2F2E41"/>
<path d="M143.106 516.905C143.105 520.058 143.878 523.162 145.356 525.946C146.835 528.729 148.974 531.108 151.587 532.872C154.199 534.636 157.204 535.731 160.339 536.063C163.474 536.394 166.642 535.951 169.565 534.772C172.489 533.593 175.078 531.715 177.106 529.301C179.134 526.888 180.538 524.014 181.196 520.931C181.854 517.849 181.745 514.652 180.879 511.621C180.013 508.59 178.416 505.818 176.228 503.549L176.136 503.456C175.982 503.295 175.828 503.133 175.666 502.979L175.663 502.978L175.66 502.977L175.659 502.974L175.658 502.971C175.458 502.786 175.258 502.601 175.05 502.424C171.66 499.451 166.897 496.224 162.037 496.224C151.399 496.224 143.106 506.268 143.106 516.905Z" fill="#2F2E41"/>
<path d="M252.868 507.016C252.96 508.043 252.826 509.078 252.475 510.048C252.124 511.018 251.565 511.898 250.837 512.628C250.108 513.359 249.229 513.92 248.26 514.274C247.291 514.627 246.257 514.764 245.23 514.674L197.545 557.728L189.339 544.768L238.792 506.522C239.057 504.807 239.942 503.247 241.28 502.141C242.617 501.034 244.314 500.456 246.049 500.517C247.785 500.578 249.437 501.273 250.694 502.471C251.951 503.669 252.724 505.286 252.868 507.016Z" fill="#A0616A"/>
<path d="M177.165 570.724C177.165 570.724 178.939 574.001 185 568.941C189.852 564.89 213.097 547.305 218.105 540.098C219.248 540.551 220.51 540.611 221.691 540.268C222.872 539.925 223.906 539.199 224.629 538.204L210.908 526.188C206.802 526.66 206.89 529.418 207.318 530.984L196.968 535.673L170.241 552.753L175.841 568.378L177.165 570.724Z" fill="#F5D6FA"/>
<path d="M151.273 600.914L150.273 605.674L149.425 623.23L186.788 625.283L185.628 598.281L182.006 592.331L151.273 600.914Z" fill="#A0616A"/>
<path d="M167.108 537.508C176.026 537.508 183.255 530.279 183.255 521.361C183.255 512.443 176.026 505.213 167.108 505.213C158.19 505.213 150.96 512.443 150.96 521.361C150.96 530.279 158.19 537.508 167.108 537.508Z" fill="#A0616A"/>
<path d="M138.44 580.921L138.341 567.498C138.339 562.669 139.973 557.981 142.977 554.199C145.982 550.418 150.179 547.766 154.884 546.677L154.945 546.663L158.138 542.36L171.111 543.658L173.488 548.518L182.888 554.115L186.508 565.749C188.077 566.796 189.415 568.154 190.438 569.739C191.461 571.324 192.147 573.103 192.453 574.964C193.682 582.813 188.187 590.666 187.533 591.566L185.849 601.052L149.21 607.517L148.912 607.554L138.44 580.921Z" fill="#F5D6FA"/>
<path d="M186.867 518.482C184.984 519.675 183.029 520.753 181.015 521.709C178.971 522.691 176.833 523.464 174.633 524.016C174.004 522.635 173.234 521.323 172.335 520.1C172.566 521.549 172.572 523.025 172.352 524.476C168.706 525.064 164.972 524.757 161.471 523.583L158.43 518.482L158.2 524.175C155.681 524.635 153.17 525.068 150.651 525.519C150.501 525.536 150.351 525.572 150.209 525.598C148.644 518.544 150.863 510.774 155.796 506.071C158.245 503.761 161.3 502.194 164.605 501.552C167.91 500.91 171.33 501.221 174.465 502.447C174.863 502.606 175.27 502.783 175.658 502.969L175.659 502.972L175.661 502.975L175.664 502.977L175.667 502.978C175.897 503.092 176.092 503.366 176.348 503.34C187.38 502.111 187.734 510.668 186.867 518.482Z" fill="#2F2E41"/>
<path d="M160.005 774.355L168.085 780.572L195.911 752.364L183.985 743.189L160.005 774.355Z" fill="#A0616A"/>
<path d="M161.068 768.827L174.427 777.893L170.217 783.366L175.907 801.097C176.188 801.972 176.182 802.915 175.889 803.787C175.597 804.659 175.033 805.415 174.281 805.944C173.528 806.473 172.627 806.747 171.707 806.727C170.787 806.707 169.898 806.394 169.17 805.833L153.963 794.132L155.507 786.702L150.318 791.328L144.585 786.916L161.068 768.827Z" fill="#2F2E41"/>
<path d="M133.784 739.928L133.784 739.822L137.613 733.223L133.703 724.633L133.586 702.563L134.22 699.25C135.072 694.793 134.824 690.197 133.497 685.858L133.425 672.424C133.288 669.059 138.502 666.099 137.286 663.293C125.794 636.774 149.021 616.544 149.177 616.382L149.652 615.888L152.227 617.839L154.678 617.842L187.755 623.869L187.994 624.314C189.295 626.754 191.806 635.165 191.955 638.971C193.603 640.88 212.381 662.608 214.05 664.118C225.33 674.324 231.788 691.217 234.634 700.378C235.34 702.642 235.483 705.045 235.049 707.377C234.614 709.708 233.617 711.899 232.142 713.756L189.44 760.53L177.948 749.922L201.054 707.818L199.388 703.546C196.398 702.994 193.693 701.423 191.733 699.099L187.054 693.545C185.759 692.012 184.936 690.136 184.684 688.144L181.847 687.803L171.683 677.132L164.632 740.988L162.715 746.033L129.33 785.281L115.187 776.441L133.784 739.928Z" fill="#2F2E41"/>
<path d="M128.686 465.735C128.044 466.543 127.588 467.481 127.348 468.484C127.109 469.487 127.092 470.53 127.299 471.54C127.507 472.55 127.933 473.503 128.548 474.33C129.163 475.158 129.952 475.841 130.86 476.33L120.244 507.758L128.912 541.063L142.89 534.744L134.265 509.623L140.718 473.057C141.439 471.478 141.557 469.689 141.047 468.029C140.538 466.37 139.437 464.954 137.954 464.052C136.471 463.149 134.708 462.822 133 463.132C131.292 463.443 129.757 464.369 128.686 465.735Z" fill="#A0616A"/>
<path d="M141.48 568.505C141.48 568.505 138.197 570.267 135.914 562.71C134.086 556.659 121.647 523.808 121.423 515.036C120.218 514.786 119.131 514.142 118.333 513.207C117.534 512.271 117.07 511.097 117.013 509.868L135.08 507.368C138.25 510.019 136.661 512.274 135.443 513.348L141.597 523.771L154.458 551.909L143.876 567.272L141.48 568.505Z" fill="#F5D6FA"/>
<path d="M150.647 525.517C152.503 519.922 155.83 514.929 160.279 511.063C164.728 507.196 170.136 504.598 175.936 503.541C175.959 503.534 176.036 503.503 176.136 503.457C176.197 503.418 176.274 503.38 176.351 503.341C176.12 503.21 175.897 503.095 175.666 502.979L175.663 502.978L175.66 502.977L175.659 502.974L175.658 502.971C175.458 502.786 175.258 502.602 175.05 502.424L174.464 502.448C174.464 502.448 153.89 499.189 150.647 525.517Z" fill="#FD6584"/>
<path d="M416.126 705.458C418.372 702.083 417.043 697.251 413.158 694.667C409.273 692.082 404.303 692.723 402.058 696.098C399.812 699.473 401.142 704.304 405.026 706.889C408.911 709.473 413.881 708.833 416.126 705.458Z" fill="#F2F2F2"/>
<path d="M370.546 579.488C372.792 576.113 371.463 571.282 367.578 568.698C363.693 566.113 358.723 566.754 356.478 570.129C354.232 573.504 355.561 578.335 359.446 580.92C363.331 583.504 368.301 582.864 370.546 579.488Z" fill="#F2F2F2"/>
<path d="M561.158 773.416C563.403 770.04 562.074 765.209 558.189 762.625C554.304 760.04 549.335 760.681 547.089 764.056C544.844 767.431 546.173 772.262 550.058 774.847C553.943 777.431 558.912 776.791 561.158 773.416Z" fill="#F2F2F2"/>
<path d="M175.79 368.158C178.036 364.783 176.707 359.952 172.822 357.367C168.937 354.783 163.967 355.424 161.722 358.799C159.477 362.174 160.806 367.005 164.691 369.59C168.575 372.174 173.545 371.534 175.79 368.158Z" fill="#F2F2F2"/>
<path d="M355.628 328.379C357.874 325.004 356.545 320.172 352.66 317.588C348.775 315.003 343.805 315.644 341.56 319.019C339.314 322.394 340.643 327.225 344.528 329.81C348.413 332.394 353.383 331.754 355.628 328.379Z" fill="#F2F2F2"/>
<path d="M270.516 662.127C272.761 658.752 271.432 653.921 267.548 651.336C263.663 648.752 258.693 649.392 256.448 652.767C254.202 656.142 255.531 660.974 259.416 663.558C263.301 666.143 268.271 665.502 270.516 662.127Z" fill="#E6E6E6"/>
<path d="M641.481 837.79H102.552C102.291 837.789 102.041 837.685 101.856 837.5C101.672 837.315 101.568 837.065 101.568 836.803C101.568 836.542 101.672 836.292 101.856 836.107C102.041 835.922 102.291 835.817 102.552 835.817H641.481C641.742 835.817 641.993 835.921 642.178 836.106C642.364 836.291 642.468 836.542 642.468 836.803C642.468 837.065 642.364 837.316 642.178 837.501C641.993 837.686 641.742 837.79 641.481 837.79Z" fill="#CCCCCC"/>
<path d="M202.86 510.061C198.327 510.048 193.958 508.364 190.587 505.332C187.217 502.301 185.082 498.133 184.591 493.626L174.07 395.911C173.553 391.06 174.981 386.201 178.042 382.402C181.103 378.602 185.546 376.172 190.396 375.644L502.796 342.007C507.648 341.49 512.506 342.919 516.306 345.979C520.106 349.04 522.536 353.483 523.064 358.334L533.585 456.048C534.102 460.9 532.673 465.759 529.612 469.558C526.551 473.358 522.108 475.788 517.258 476.316L204.858 509.953C204.195 510.025 203.528 510.061 202.86 510.061Z" fill="#E6E6E6"/>
<path d="M499.355 346.544C498.768 346.544 498.181 346.575 497.598 346.638L196.462 379.063C194.356 379.289 192.316 379.929 190.457 380.944C188.599 381.959 186.958 383.33 185.63 384.98C184.301 386.629 183.31 388.524 182.714 390.556C182.118 392.588 181.927 394.717 182.154 396.823L187.474 446.229C188.334 454.216 190.758 461.955 194.609 469.005C198.46 476.055 203.662 482.277 209.918 487.317C216.174 492.357 223.361 496.115 231.069 498.377C238.777 500.639 246.855 501.36 254.842 500.5L466.591 477.7C474.554 476.843 482.27 474.426 489.298 470.586C496.327 466.747 502.53 461.561 507.554 455.324C512.579 449.088 516.325 441.922 518.58 434.238C520.835 426.553 521.555 418.499 520.697 410.537L515.358 360.946C514.932 356.996 513.064 353.342 510.111 350.684C507.158 348.026 503.328 346.552 499.355 346.544Z" fill="white"/>
<path d="M435.94 397.961L267.631 416.083C267.15 416.136 266.663 416.093 266.198 415.957C265.734 415.821 265.301 415.595 264.923 415.291C264.546 414.988 264.232 414.613 264 414.188C263.768 413.764 263.622 413.297 263.57 412.816C263.518 412.335 263.562 411.848 263.698 411.383C263.835 410.919 264.061 410.486 264.365 410.109C264.669 409.732 265.045 409.419 265.47 409.187C265.895 408.956 266.361 408.81 266.843 408.759L435.152 390.637C435.633 390.584 436.12 390.627 436.585 390.763C437.049 390.899 437.482 391.125 437.86 391.428C438.237 391.732 438.551 392.107 438.783 392.531C439.015 392.956 439.161 393.422 439.213 393.904C439.265 394.385 439.221 394.872 439.085 395.336C438.948 395.801 438.722 396.234 438.418 396.611C438.114 396.987 437.739 397.301 437.313 397.532C436.888 397.764 436.422 397.909 435.94 397.961Z" fill="#F5D6FA"/>
<path d="M438.361 420.438L270.052 438.561C269.081 438.665 268.108 438.38 267.347 437.767C266.586 437.154 266.1 436.264 265.996 435.293C265.891 434.322 266.177 433.349 266.79 432.588C267.402 431.827 268.292 431.341 269.264 431.237L437.573 413.114C438.544 413.01 439.517 413.295 440.277 413.908C441.038 414.521 441.524 415.411 441.629 416.382C441.733 417.353 441.448 418.326 440.835 419.087C440.222 419.848 439.332 420.334 438.361 420.438Z" fill="#F5D6FA"/>
<path d="M292.086 458.926L272.472 461.038C271.501 461.143 270.528 460.857 269.767 460.244C269.006 459.632 268.52 458.742 268.416 457.771C268.311 456.799 268.597 455.826 269.209 455.066C269.822 454.305 270.712 453.819 271.683 453.714L291.297 451.602C291.779 451.55 292.266 451.593 292.73 451.729C293.195 451.864 293.628 452.091 294.005 452.394C294.382 452.697 294.696 453.072 294.928 453.497C295.161 453.922 295.307 454.388 295.359 454.869C295.41 455.351 295.367 455.838 295.23 456.302C295.094 456.767 294.867 457.2 294.563 457.576C294.259 457.953 293.884 458.266 293.459 458.498C293.034 458.73 292.567 458.875 292.086 458.926Z" fill="#F5D6FA"/>
<path d="M196.238 400.035C199.9 400.035 202.868 397.066 202.868 393.405C202.868 389.743 199.9 386.775 196.238 386.775C192.577 386.775 189.608 389.743 189.608 393.405C189.608 397.066 192.577 400.035 196.238 400.035Z" fill="#F5D6FA"/>
<path d="M492.93 366.885C496.591 366.885 499.56 363.916 499.56 360.255C499.56 356.593 496.591 353.625 492.93 353.625C489.268 353.625 486.3 356.593 486.3 360.255C486.3 363.916 489.268 366.885 492.93 366.885Z" fill="#F5D6FA"/>
<path d="M403.294 502.995C402.685 502.46 402.202 501.796 401.882 501.051C401.561 500.307 401.411 499.5 401.441 498.689C401.774 489.06 400.188 479.46 396.775 470.449C396.486 469.691 396.369 468.879 396.433 468.07C396.497 467.262 396.74 466.478 397.145 465.775C397.533 465.1 398.064 464.518 398.701 464.07C399.338 463.622 400.065 463.319 400.832 463.182C408.538 458.531 416.438 457.226 424.317 459.302C425.588 459.115 426.883 459.387 427.971 460.069C429.059 460.751 429.868 461.799 430.254 463.024C433.444 473.38 435.218 484.12 435.528 494.952C435.558 496.251 435.118 497.518 434.289 498.519C433.46 499.52 432.297 500.188 431.015 500.401L407.7 504.253C406.918 504.383 406.117 504.338 405.355 504.121C404.593 503.904 403.889 503.519 403.294 502.995Z" fill="#F5D6FA"/>
<path d="M405.366 474.937L424.99 471.695C425.151 471.669 425.306 471.611 425.445 471.525C425.584 471.439 425.704 471.326 425.8 471.194C425.895 471.061 425.963 470.911 426 470.751C426.038 470.592 426.043 470.427 426.016 470.266C425.99 470.105 425.931 469.95 425.845 469.811C425.759 469.673 425.646 469.552 425.513 469.457C425.38 469.362 425.229 469.294 425.07 469.257C424.911 469.22 424.746 469.215 424.584 469.242L404.96 472.485C404.636 472.539 404.346 472.72 404.155 472.988C403.963 473.256 403.886 473.588 403.939 473.913C403.993 474.238 404.173 474.528 404.441 474.72C404.708 474.912 405.041 474.99 405.366 474.937Z" fill="white"/>
<path d="M406.988 484.75L426.612 481.508C426.937 481.454 427.227 481.273 427.419 481.005C427.611 480.737 427.689 480.404 427.635 480.078C427.582 479.753 427.401 479.463 427.133 479.271C426.865 479.079 426.532 479.001 426.206 479.055L406.582 482.297C406.421 482.323 406.266 482.381 406.127 482.467C405.988 482.553 405.868 482.666 405.772 482.798C405.677 482.931 405.609 483.082 405.572 483.241C405.534 483.4 405.529 483.565 405.556 483.726C405.582 483.888 405.641 484.042 405.727 484.181C405.813 484.32 405.926 484.44 406.059 484.535C406.192 484.63 406.343 484.698 406.502 484.735C406.661 484.772 406.826 484.777 406.988 484.75Z" fill="white"/>
<path d="M408.608 494.561L428.232 491.319C428.557 491.265 428.848 491.085 429.04 490.817C429.232 490.549 429.309 490.215 429.256 489.89C429.202 489.565 429.021 489.274 428.753 489.082C428.485 488.89 428.152 488.813 427.826 488.866L408.203 492.108C408.042 492.135 407.887 492.193 407.749 492.279C407.61 492.365 407.49 492.478 407.395 492.611C407.3 492.744 407.232 492.894 407.195 493.053C407.158 493.212 407.152 493.376 407.179 493.537C407.205 493.698 407.263 493.853 407.35 493.991C407.436 494.13 407.549 494.25 407.681 494.345C407.814 494.44 407.964 494.508 408.123 494.545C408.282 494.583 408.447 494.588 408.608 494.561Z" fill="white"/>
</g>
<defs>
<clipPath id="clip0_218_1144">
<rect width="605.878" height="521.79" fill="white" transform="translate(86 316)"/>
</clipPath>
</defs>
</svg>
